<?xml version="1.0" encoding="utf-8"?>
<!-- Generator: Adobe Illustrator 15.1.0, SVG Export Plug-In . SVG Version: 6.00 Build 0)  -->
<!DOCTYPE svg PUBLIC "-//W3C//DTD SVG 1.1//EN" "http://www.w3.org/Graphics/SVG/1.1/DTD/svg11.dtd">
<svg version="1.1" id="Layer_1" xmlns="http://www.w3.org/2000/svg" xmlns:xlink="http://www.w3.org/1999/xlink" x="0px" y="0px"
	 width="612px" height="792px" viewBox="0 0 612 792" enable-background="new 0 0 612 792" xml:space="preserve">
<path d="M510,566v17c0,28.167-22.833,51-51,51H51c-28.167,0-51-22.833-51-51V311c0-28.167,22.833-51,51-51h17v51H57.375
	c-3.521,0-6.375,2.854-6.375,6.375v259.25c0,3.521,2.854,6.375,6.375,6.375h395.25c3.521,0,6.375-2.854,6.375-6.375V566H510z
	 M554.625,209h-395.25c-3.521,0-6.375,2.854-6.375,6.375v259.25c0,3.521,2.854,6.375,6.375,6.375h395.25
	c3.521,0,6.375-2.854,6.375-6.375v-259.25C561,211.854,558.146,209,554.625,209z M561,158c28.167,0,51,22.833,51,51v272
	c0,28.167-22.833,51-51,51H153c-28.167,0-51-22.833-51-51V209c0-28.167,22.833-51,51-51H561z"/>
<path d="M440.137,223.563c9.544-9.556,25.202-9.357,34.943,0.368c9.692,9.728,9.892,25.365,0.348,34.923
	c-7.355,7.351-32.606,11.74-43.84,13.281c-3.23,0.447-5.169-1.938-4.722-4.723C428.456,256.25,432.782,230.915,440.137,223.563
	L440.137,223.563z M265.264,253.784c41.365-41.371,104.143-48.298,152.706-20.781c-0.796,2.381-1.442,4.792-2.039,7.133
	c-1.54,6.039-2.733,12.208-3.628,17.397c-40.112-26.637-94.788-22.258-130.178,13.112c-35.366,35.39-39.745,90.017-13.128,130.179
	c-5.209,0.895-11.378,1.639-17.412,3.627c-2.336,0.598-4.737,1.244-7.113,1.988C216.965,357.927,223.897,295.15,265.264,253.784
	L265.264,253.784z M465.984,281.083c27.536,48.512,20.578,111.29-20.776,152.646c-41.355,41.403-104.133,48.313-152.696,20.774
	c0.746-2.384,1.442-4.771,2.039-7.106c1.094-6.064,2.733-12.228,3.628-17.396c40.112,26.642,94.789,22.267,130.178-13.122
	c35.39-35.391,39.764-90.464,13.123-130.178c4.771-0.895,11.383-2.088,17.396-3.628
	C461.212,282.475,463.648,281.828,465.984,281.083L465.984,281.083z M406.537,329.296c5.02-8.102,16.8-8.4,18.788,0.944
	c4.772,22.02-1.788,46.475-19.484,64.17c-17.695,17.694-42.149,24.255-64.22,19.484c-9.295-1.988-8.997-13.768-0.895-18.789
	c12.526-7.804,24.505-17.596,36.584-29.227C388.941,354.249,398.733,341.822,406.537,329.296L406.537,329.296z M322.187,333.671
	c5.766-1.791,10.736,3.18,9.443,9.394l-14.762,48.463c-1.292,4.275-6.66,5.617-9.842,2.436c-0.944-0.994-1.59-2.236-1.689-3.628
	l-2.535-27.885l-27.87-2.534c-1.377-0.1-2.664-0.696-3.644-1.69c-3.151-3.181-1.809-8.549,2.46-9.841L322.187,333.671z
	 M371.396,263.452l2.534,27.87l27.885,2.534c1.393,0.1,2.636,0.746,3.63,1.69c3.181,3.182,1.839,8.549-2.437,9.841l-48.463,14.763
	c-6.213,1.292-11.184-3.679-9.395-9.444l14.713-48.438c1.293-4.27,6.66-5.612,9.842-2.461
	C370.699,260.788,371.297,262.075,371.396,263.452L371.396,263.452z M235.043,428.657c7.351-7.356,32.641-11.729,43.85-13.271
	c2.783-0.446,5.169,1.492,4.722,4.723c-1.59,11.184-5.93,36.483-13.281,43.84c-9.558,9.544-25.19,9.344-34.918-0.348
	C225.686,453.859,225.487,438.201,235.043,428.657L235.043,428.657z"/>
</svg>
